<svg width="24" height="22" viewBox="0 0 24 22" fill="none" xmlns="http://www.w3.org/2000/svg">
    <path fill-rule="evenodd" clip-rule="evenodd"
        d="M1.75 0C1.19772 0 0.75 0.447715 0.75 1C0.75 1.55228 1.19772 2 1.75 2H2.56337C3.6029 2 4.46912 2.79636 4.55632 3.83223L5.27216 12.3355C5.44657 14.4073 7.179 16 9.25806 16H18.7252C20.8135 16 22.5504 14.3935 22.7131 12.3116L23.1818 6.31155C23.3635 3.9867 21.5259 2 19.194 2H8.75748C7.8615 2 7.03874 2.29321 6.3754 2.78603C5.85843 1.15918 4.33703 0 2.56337 0H1.75ZM7.26511 12.1678L6.9778 8.75484L6.76424 6.16431C6.66817 4.9989 7.58811 4 8.75748 4H19.194C20.36 4 21.2787 4.99335 21.1879 6.15578L20.7192 12.1558C20.6378 13.1968 19.7694 14 18.7252 14H9.25806C8.21853 14 7.35231 13.2036 7.26511 12.1678Z"
        fill="#F72C00" />
    <path
        d="M11.5 20C11.5 21.1046 10.6046 22 9.5 22C8.39543 22 7.5 21.1046 7.5 20C7.5 18.8954 8.39543 18 9.5 18C10.6046 18 11.5 18.8954 11.5 20Z"
        fill="#F72C00" />
    <path
        d="M20.5 20C20.5 21.1046 19.6046 22 18.5 22C17.3954 22 16.5 21.1046 16.5 20C16.5 18.8954 17.3954 18 18.5 18C19.6046 18 20.5 18.8954 20.5 20Z"
        fill="#F72C00" />
</svg>