<svg width="15" height="20" viewBox="0 0 15 20" fill="none" xmlns="http://www.w3.org/2000/svg">
    <path fill-rule="evenodd" clip-rule="evenodd"
        d="M7.5 2.49999C4.27834 2.49999 1.66667 5.11167 1.66667 8.33333C1.66667 9.91008 2.37764 11.3984 3.5769 12.9556C4.58951 14.2704 5.88561 15.556 7.2769 16.9361C7.351 17.0096 7.42538 17.0834 7.5 17.1574C7.57462 17.0834 7.649 17.0096 7.7231 16.9361C9.11439 15.556 10.4105 14.2704 11.4231 12.9556C12.6224 11.3984 13.3333 9.91008 13.3333 8.33333C13.3333 5.11167 10.7217 2.49999 7.5 2.49999ZM0 8.33333C0 4.19119 3.35786 0.833328 7.5 0.833328C11.6421 0.833328 15 4.19119 15 8.33333C15 10.4385 14.0443 12.2835 12.7436 13.9725C11.6566 15.3839 10.2654 16.763 8.87569 18.1407C8.6128 18.4013 8.34997 18.6619 8.08926 18.9226C7.76382 19.248 7.23618 19.248 6.91074 18.9226C6.65003 18.6619 6.38719 18.4013 6.12431 18.1407C4.73456 16.763 3.34337 15.3839 2.25643 13.9725C0.955692 12.2835 0 10.4385 0 8.33333ZM7.5 6.66666C6.57953 6.66666 5.83333 7.41285 5.83333 8.33333C5.83333 9.2538 6.57953 9.99999 7.5 9.99999C8.42047 9.99999 9.16667 9.2538 9.16667 8.33333C9.16667 7.41285 8.42047 6.66666 7.5 6.66666ZM4.16667 8.33333C4.16667 6.49238 5.65905 4.99999 7.5 4.99999C9.34095 4.99999 10.8333 6.49238 10.8333 8.33333C10.8333 10.1743 9.34095 11.6667 7.5 11.6667C5.65905 11.6667 4.16667 10.1743 4.16667 8.33333Z"
        fill="#281D1B" />
</svg>