<svg width="23" height="22" viewBox="0 0 23 22" fill="none" xmlns="http://www.w3.org/2000/svg">
    <path fill-rule="evenodd" clip-rule="evenodd"
        d="M9.5 -9.53674e-07C4.52944 -9.53674e-07 0.5 4.02944 0.5 9C0.5 13.9706 4.52944 18 9.5 18C11.625 18 13.578 17.2635 15.1177 16.0319L20.7929 21.7071C21.1834 22.0976 21.8166 22.0976 22.2071 21.7071C22.5976 21.3166 22.5976 20.6834 22.2071 20.2929L16.5319 14.6177C17.7635 13.078 18.5 11.125 18.5 9C18.5 4.02944 14.4706 -9.53674e-07 9.5 -9.53674e-07ZM2.5 9C2.5 5.13401 5.63401 2 9.5 2C13.366 2 16.5 5.13401 16.5 9C16.5 12.866 13.366 16 9.5 16C5.63401 16 2.5 12.866 2.5 9Z"
        fill="#281D1B" />
</svg>